<?xml version="1.0" encoding="utf-8"?>
<svg xmlns="http://www.w3.org/2000/svg" viewBox="0 0 147 200" xmlns:bx="https://boxy-svg.com">
  <defs>
    <bx:export>
      <bx:file format="svg"/>
    </bx:export>
  </defs>
  <path d="M 53.412 55.685 C 52.332 60.417 53.173 62.08 56.892 62.465 C 64.087 63.231 64.326 64.766 64.326 101.09 C 64.326 136.774 63.846 139.46 57.609 139.46 C 54.732 139.46 51.854 143.808 53.173 146.112 C 53.412 146.752 60.128 147.135 68.046 147.135 L 82.317 147.135 L 82.317 143.938 C 82.317 141.379 81.478 140.612 77.64 139.46 C 75.121 138.82 72.602 137.286 72.241 136.136 C 71.883 134.984 71.523 121.172 71.523 105.311 L 71.523 76.533 L 97.43 112.473 L 123.337 148.414 L 128.015 148.414 L 132.692 148.414 L 132.692 108.253 C 132.692 86.126 133.053 67.198 133.413 66.045 C 133.771 64.894 136.29 63.359 138.809 62.72 C 142.527 61.569 143.487 60.801 143.487 58.371 C 143.487 55.302 143.368 55.302 129.094 55.302 L 114.702 55.302 L 114.702 59.011 C 114.702 62.209 115.182 62.72 118.181 62.72 C 125.135 62.72 125.497 64.254 125.497 91.753 L 125.497 116.821 L 119.979 109.277 C 116.98 105.183 106.906 91.241 97.551 78.578 L 80.639 55.302 L 67.086 55.174 C 59.648 55.174 53.531 55.43 53.412 55.685 Z" style="stroke-width: 0.1px;" fill="#000000" stroke="none"/>
  <path d="M 28.301 42.494 H 88.959 L 88.959 26.193 L 133.094 50.877 L 88.959 75.561 L 88.959 59.26 H 28.301 V 42.494 Z" bx:shape="arrow 28.301 26.193 104.793 49.368 16.766 44.135 0 1@c9cedecd" style="stroke-width: 0.1px;" transform="matrix(-0.015324, 0.999883, -0.999883, -0.015324, 78.413193, 26.709421)"/>
</svg>