<?xml version="1.0" encoding="utf-8"?>
<svg xmlns="http://www.w3.org/2000/svg" viewBox="-1520.1 -355 3493.8 1600" xmlns:bx="https://boxy-svg.com" width="3493.8px" height="1600px"><defs><bx:export><bx:file format="svg"/><bx:file format="svg" href="#object-0" path="Untitled 2.svg"/></bx:export></defs><g data-cell-id="2SAd6S9g_VnDX-_0mQMg-4" transform="matrix(0.827406, 0, 0, 1.280423, -949.945984, -494.151733)" style=""><g transform="translate(0.5,0.5)"><rect x="2370" y="678.5" width="760" height="108" fill="#000000" style="fill: light-dark(rgb(0, 0, 0), rgb(237, 237, 237));" stroke="none" pointer-events="all"/></g></g><g data-cell-id="2SAd6S9g_VnDX-_0mQMg-5" transform="matrix(0.834073, 0, 0, 1.19736, -1438.733276, -434.522736)" style=""><g transform="translate(0.5,0.5)"><rect x="310" y="678.5" width="760" height="108" fill="#000000" style="fill: light-dark(rgb(0, 0, 0), rgb(237, 237, 237));" stroke="none" pointer-events="all"/></g></g><g data-cell-id="2SAd6S9g_VnDX-_0mQMg-6" transform="matrix(1, 0, 0, 1, -1490.253662, -286.458862)"><g transform="translate(0.5,0.5)"><ellipse cx="3225" cy="728" rx="195" ry="195" fill="#000000" style="fill: light-dark(rgb(0, 0, 0), rgb(237, 237, 237)); stroke: light-dark(rgb(0, 0, 0), rgb(255, 255, 255));" stroke="#000000" pointer-events="all"/></g></g><g data-cell-id="2SAd6S9g_VnDX-_0mQMg-7" transform="matrix(1, 0, 0, 1, -1490.253662, -293.458862)"><g transform="translate(0.5,0.5)"><ellipse cx="195" cy="732.5" rx="195" ry="195" fill="#000000" style="fill: light-dark(rgb(0, 0, 0), rgb(237, 237, 237)); stroke: light-dark(rgb(0, 0, 0), rgb(255, 255, 255));" stroke="#000000" pointer-events="all"/></g></g><path d="M 398.359 552.896 m -780 0 a 780 780 0 1 0 1560 0 a 780 780 0 1 0 -1560 0 Z M 398.359 552.896 m -640 0 a 640 640 0 0 1 1280 0 a 640 640 0 0 1 -1280 0 Z" bx:shape="ring 398.359 552.896 640 640 780 780 1@f2e0f9c8" style="stroke: rgb(0, 0, 0); fill-rule: nonzero; paint-order: fill markers;" transform="matrix(1, 0, -0.00082453, 1, -165.43807983, -108.02397156)" id="object-0"/><path d="M 420.441 12.686 C 373.452 19.837 325.923 58.993 282.252 126.531 C 244.717 184.58 216.472 241.759 150.765 392.707 C 72.803 571.811 34.067 643.542 -0.228 672.311 C -16.462 685.929 -24.978 684.586 -44.297 665.359 C -73.534 636.269 -112.43 565.963 -162.4 451.953 C -182.27 406.613 -191.08 392.985 -206.6 383.501 C -221.62 374.341 -244.06 373.074 -258.97 380.546 C -297.52 399.856 -314.13 458.891 -294.86 508.095 C -284.58 534.344 -251.24 607.207 -229.96 649.903 C -179.12 751.998 -137.43 808.493 -90.474 839.014 C -63.657 856.458 -48.002 861.334 -18.934 861.334 C 10.377 861.334 26.151 856.415 52.886 838.895 C 116.223 797.407 165.46 718.627 252.518 519.477 C 339.928 319.518 362.567 274.056 398.262 226.805 C 432.105 182.007 444.284 181.39 476.797 222.834 C 511.727 267.359 539.72 322.094 608.555 480.471 C 627.089 523.106 640.917 552.063 646.535 560.009 C 675.431 600.901 727.068 595.098 750.576 548.315 C 754.635 540.247 758.842 529.237 759.935 523.847 C 762.764 509.888 762.397 480.98 759.25 469.334 C 756.535 459.32 708.2 347.223 679.419 284.222 C 619.245 152.456 569.546 76.595 519.236 39.69 C 500.414 25.882 475.509 15.313 455.046 12.45 C 445.598 11.128 437.043 10.169 436.034 10.318 C 435.024 10.47 428.009 11.535 420.441 12.686" stroke="none" fill="black" fill-rule="evenodd" style="stroke-width: 1px;"/></svg>