<svg width="1080" height="820" xmlns="http://www.w3.org/2000/svg" version="1.1"><path d="M725.400 13.513 C 691.604 21.751,656.235 49.129,624.653 91.501 C 588.648 139.805,552.431 210.541,497.778 339.300 C 421.526 518.948,403.781 558.864,382.948 597.600 C 349.826 659.187,321.675 696.613,300.222 707.585 C 291.818 711.882,289.537 711.857,280.746 707.372 C 265.329 699.507,242.791 672.867,220.059 635.638 C 203.205 608.036,162.174 523.645,137.678 466.200 C 112.241 406.546,110.293 403.497,92.057 394.773 C 83.616 390.734,80.693 390.259,68.588 390.960 C 56.722 391.647,53.474 392.603,45.692 397.697 C 28.451 408.984,19.717 428.779,23.403 448.215 C 26.452 464.293,70.764 565.005,101.801 626.400 C 142.463 706.832,176.789 754.920,213.215 782.479 C 226.288 792.370,248.904 803.484,263.628 807.253 C 276.192 810.470,301.775 810.844,315.361 808.010 C 326.699 805.646,350.854 794.721,363.012 786.459 C 375.491 777.979,399.963 753.849,413.071 737.100 C 455.094 683.403,490.460 613.534,564.303 438.319 C 635.368 269.696,659.662 218.903,693.884 167.400 C 716.670 133.108,736.371 113.276,750.446 110.461 C 757.722 109.006,769.396 115.946,782.819 129.706 C 820.848 168.691,859.981 244.024,934.238 421.200 C 946.478 450.405,958.969 478.194,961.996 482.953 C 975.636 504.398,1003.412 511.114,1027.409 498.771 C 1045.706 489.360,1056.555 464.655,1051.218 444.554 C 1048.970 436.086,1006.578 334.317,983.453 281.869 C 935.859 173.930,895.535 103.775,857.843 63.334 C 834.986 38.810,805.587 19.906,780.372 13.518 C 767.266 10.198,739.011 10.195,725.400 13.513 " stroke="none" fill="black" fill-rule="evenodd"></path></svg>